<?xml version="1.0" encoding="UTF-8" standalone="no"?>
<!DOCTYPE svg PUBLIC "-//W3C//DTD SVG 1.0//EN" "http://www.w3.org/TR/2001/PR-SVG-20010719/DTD/svg10.dtd">
<svg width="21cm" height="3cm" viewBox="529 214 412 53" xmlns="http://www.w3.org/2000/svg" xmlns:xlink="http://www.w3.org/1999/xlink">
  <g>
    <rect style="fill: #ff4242" x="580" y="240" width="20" height="26"/>
    <rect style="fill: none; fill-opacity:0; stroke-width: 2; stroke: #000000" x="580" y="240" width="20" height="26"/>
  </g>
  <g>
    <rect style="fill: #ff4242" x="600" y="240" width="20" height="26"/>
    <rect style="fill: none; fill-opacity:0; stroke-width: 2; stroke: #000000" x="600" y="240" width="20" height="26"/>
  </g>
  <g>
    <rect style="fill: #ff4242" x="620" y="240" width="20" height="26"/>
    <rect style="fill: none; fill-opacity:0; stroke-width: 2; stroke: #000000" x="620" y="240" width="20" height="26"/>
  </g>
  <g>
    <rect style="fill: #95ff96" x="640" y="240" width="20" height="26"/>
    <rect style="fill: none; fill-opacity:0; stroke-width: 2; stroke: #000000" x="640" y="240" width="20" height="26"/>
  </g>
  <g>
    <rect style="fill: #95ff96" x="660" y="240" width="20" height="26"/>
    <rect style="fill: none; fill-opacity:0; stroke-width: 2; stroke: #000000" x="660" y="240" width="20" height="26"/>
  </g>
  <g>
    <rect style="fill: #95ff96" x="680" y="240" width="20" height="26"/>
    <rect style="fill: none; fill-opacity:0; stroke-width: 2; stroke: #000000" x="680" y="240" width="20" height="26"/>
  </g>
  <g>
    <rect style="fill: #95ff96" x="700" y="240" width="20" height="26"/>
    <rect style="fill: none; fill-opacity:0; stroke-width: 2; stroke: #000000" x="700" y="240" width="20" height="26"/>
  </g>
  <g>
    <rect style="fill: #95ff96" x="720" y="240" width="20" height="26"/>
    <rect style="fill: none; fill-opacity:0; stroke-width: 2; stroke: #000000" x="720" y="240" width="20" height="26"/>
  </g>
  <g>
    <rect style="fill: #add8e6" x="740" y="240" width="20" height="26"/>
    <rect style="fill: none; fill-opacity:0; stroke-width: 2; stroke: #000000" x="740" y="240" width="20" height="26"/>
  </g>
  <g>
    <rect style="fill: #add8e6" x="760" y="240" width="20" height="26"/>
    <rect style="fill: none; fill-opacity:0; stroke-width: 2; stroke: #000000" x="760" y="240" width="20" height="26"/>
  </g>
  <g>
    <rect style="fill: #add8e6" x="780" y="240" width="20" height="26"/>
    <rect style="fill: none; fill-opacity:0; stroke-width: 2; stroke: #000000" x="780" y="240" width="20" height="26"/>
  </g>
  <g>
    <rect style="fill: #add8e6" x="800" y="240" width="20" height="26"/>
    <rect style="fill: none; fill-opacity:0; stroke-width: 2; stroke: #000000" x="800" y="240" width="20" height="26"/>
  </g>
  <g>
    <rect style="fill: #add8e6" x="820" y="240" width="20" height="26"/>
    <rect style="fill: none; fill-opacity:0; stroke-width: 2; stroke: #000000" x="820" y="240" width="20" height="26"/>
  </g>
  <g>
    <rect style="fill: #ffc760" x="840" y="240" width="20" height="26"/>
    <rect style="fill: none; fill-opacity:0; stroke-width: 2; stroke: #000000" x="840" y="240" width="20" height="26"/>
  </g>
  <g>
    <rect style="fill: #ffc760" x="860" y="240" width="20" height="26"/>
    <rect style="fill: none; fill-opacity:0; stroke-width: 2; stroke: #000000" x="860" y="240" width="20" height="26"/>
  </g>
  <g>
    <rect style="fill: #ffc760" x="880" y="240" width="20" height="26"/>
    <rect style="fill: none; fill-opacity:0; stroke-width: 2; stroke: #000000" x="880" y="240" width="20" height="26"/>
  </g>
  <g>
    <rect style="fill: #ffc760" x="900" y="240" width="20" height="26"/>
    <rect style="fill: none; fill-opacity:0; stroke-width: 2; stroke: #000000" x="900" y="240" width="20" height="26"/>
  </g>
  <g>
    <rect style="fill: #ffc760" x="920" y="240" width="20" height="26"/>
    <rect style="fill: none; fill-opacity:0; stroke-width: 2; stroke: #000000" x="920" y="240" width="20" height="26"/>
  </g>
  <text font-size="12.8" style="fill: #000000;text-anchor:start;font-family:sans-serif;font-style:normal;font-weight:normal" x="800" y="286">
    <tspan x="800" y="286"></tspan>
  </text>
  <text font-size="45.1549" style="fill: #000000;text-anchor:start;font-family:sans-serif;font-style:normal;font-weight:normal" x="529.5" y="256.75">
    <tspan x="529.5" y="256.75">...</tspan>
  </text>
</svg>
