<?xml version="1.0" encoding="UTF-8" standalone="no"?>
<!DOCTYPE svg PUBLIC "-//W3C//DTD SVG 1.0//EN" "http://www.w3.org/TR/2001/PR-SVG-20010719/DTD/svg10.dtd">
<svg width="33cm" height="6cm" viewBox="298 238 643 116" xmlns="http://www.w3.org/2000/svg" xmlns:xlink="http://www.w3.org/1999/xlink">
  <g>
    <rect style="fill: #5d0047" x="300" y="240" width="20" height="26"/>
    <rect style="fill: none; fill-opacity:0; stroke-width: 2; stroke: #000000" x="300" y="240" width="20" height="26"/>
  </g>
  <g>
    <rect style="fill: #5d0047" x="320" y="240" width="20" height="26"/>
    <rect style="fill: none; fill-opacity:0; stroke-width: 2; stroke: #000000" x="320" y="240" width="20" height="26"/>
  </g>
  <g>
    <rect style="fill: #892c00" x="340" y="240" width="20" height="26"/>
    <rect style="fill: none; fill-opacity:0; stroke-width: 2; stroke: #000000" x="340" y="240" width="20" height="26"/>
  </g>
  <g>
    <rect style="fill: #892c00" x="360" y="240" width="20" height="26"/>
    <rect style="fill: none; fill-opacity:0; stroke-width: 2; stroke: #000000" x="360" y="240" width="20" height="26"/>
  </g>
  <g>
    <rect style="fill: #892c00" x="380" y="240" width="20" height="26"/>
    <rect style="fill: none; fill-opacity:0; stroke-width: 2; stroke: #000000" x="380" y="240" width="20" height="26"/>
  </g>
  <g>
    <rect style="fill: #892c00" x="400" y="240" width="20" height="26"/>
    <rect style="fill: none; fill-opacity:0; stroke-width: 2; stroke: #000000" x="400" y="240" width="20" height="26"/>
  </g>
  <g>
    <rect style="fill: #892c00" x="420" y="240" width="20" height="26"/>
    <rect style="fill: none; fill-opacity:0; stroke-width: 2; stroke: #000000" x="420" y="240" width="20" height="26"/>
  </g>
  <g>
    <rect style="fill: #ff78e0" x="440" y="240" width="20" height="26"/>
    <rect style="fill: none; fill-opacity:0; stroke-width: 2; stroke: #000000" x="440" y="240" width="20" height="26"/>
  </g>
  <g>
    <rect style="fill: #ff78e0" x="460" y="240" width="20" height="26"/>
    <rect style="fill: none; fill-opacity:0; stroke-width: 2; stroke: #000000" x="460" y="240" width="20" height="26"/>
  </g>
  <g>
    <rect style="fill: #ff78e0" x="480" y="240" width="20" height="26"/>
    <rect style="fill: none; fill-opacity:0; stroke-width: 2; stroke: #000000" x="480" y="240" width="20" height="26"/>
  </g>
  <g>
    <rect style="fill: #ff78e0" x="500" y="240" width="20" height="26"/>
    <rect style="fill: none; fill-opacity:0; stroke-width: 2; stroke: #000000" x="500" y="240" width="20" height="26"/>
  </g>
  <g>
    <rect style="fill: #ff78e0" x="520" y="240" width="20" height="26"/>
    <rect style="fill: none; fill-opacity:0; stroke-width: 2; stroke: #000000" x="520" y="240" width="20" height="26"/>
  </g>
  <g>
    <rect style="fill: #ff4242" x="540" y="240" width="20" height="26"/>
    <rect style="fill: none; fill-opacity:0; stroke-width: 2; stroke: #000000" x="540" y="240" width="20" height="26"/>
  </g>
  <g>
    <rect style="fill: #ff4242" x="560" y="240" width="20" height="26"/>
    <rect style="fill: none; fill-opacity:0; stroke-width: 2; stroke: #000000" x="560" y="240" width="20" height="26"/>
  </g>
  <g>
    <rect style="fill: #ff4242" x="580" y="240" width="20" height="26"/>
    <rect style="fill: none; fill-opacity:0; stroke-width: 2; stroke: #000000" x="580" y="240" width="20" height="26"/>
  </g>
  <g>
    <rect style="fill: #ff4242" x="600" y="240" width="20" height="26"/>
    <rect style="fill: none; fill-opacity:0; stroke-width: 2; stroke: #000000" x="600" y="240" width="20" height="26"/>
  </g>
  <g>
    <rect style="fill: #ff4242" x="620" y="240" width="20" height="26"/>
    <rect style="fill: none; fill-opacity:0; stroke-width: 2; stroke: #000000" x="620" y="240" width="20" height="26"/>
  </g>
  <g>
    <rect style="fill: #95ff96" x="640" y="240" width="20" height="26"/>
    <rect style="fill: none; fill-opacity:0; stroke-width: 2; stroke: #000000" x="640" y="240" width="20" height="26"/>
  </g>
  <g>
    <rect style="fill: #95ff96" x="660" y="240" width="20" height="26"/>
    <rect style="fill: none; fill-opacity:0; stroke-width: 2; stroke: #000000" x="660" y="240" width="20" height="26"/>
  </g>
  <g>
    <rect style="fill: #95ff96" x="680" y="240" width="20" height="26"/>
    <rect style="fill: none; fill-opacity:0; stroke-width: 2; stroke: #000000" x="680" y="240" width="20" height="26"/>
  </g>
  <g>
    <rect style="fill: #95ff96" x="700" y="240" width="20" height="26"/>
    <rect style="fill: none; fill-opacity:0; stroke-width: 2; stroke: #000000" x="700" y="240" width="20" height="26"/>
  </g>
  <g>
    <rect style="fill: #95ff96" x="720" y="240" width="20" height="26"/>
    <rect style="fill: none; fill-opacity:0; stroke-width: 2; stroke: #000000" x="720" y="240" width="20" height="26"/>
  </g>
  <g>
    <rect style="fill: #add8e6" x="740" y="240" width="20" height="26"/>
    <rect style="fill: none; fill-opacity:0; stroke-width: 2; stroke: #000000" x="740" y="240" width="20" height="26"/>
  </g>
  <g>
    <rect style="fill: #add8e6" x="760" y="240" width="20" height="26"/>
    <rect style="fill: none; fill-opacity:0; stroke-width: 2; stroke: #000000" x="760" y="240" width="20" height="26"/>
  </g>
  <g>
    <rect style="fill: #add8e6" x="780" y="240" width="20" height="26"/>
    <rect style="fill: none; fill-opacity:0; stroke-width: 2; stroke: #000000" x="780" y="240" width="20" height="26"/>
  </g>
  <g>
    <rect style="fill: #add8e6" x="800" y="240" width="20" height="26"/>
    <rect style="fill: none; fill-opacity:0; stroke-width: 2; stroke: #000000" x="800" y="240" width="20" height="26"/>
  </g>
  <g>
    <rect style="fill: #add8e6" x="820" y="240" width="20" height="26"/>
    <rect style="fill: none; fill-opacity:0; stroke-width: 2; stroke: #000000" x="820" y="240" width="20" height="26"/>
  </g>
  <g>
    <rect style="fill: #ffc760" x="840" y="240" width="20" height="26"/>
    <rect style="fill: none; fill-opacity:0; stroke-width: 2; stroke: #000000" x="840" y="240" width="20" height="26"/>
  </g>
  <g>
    <rect style="fill: #ffc760" x="860" y="240" width="20" height="26"/>
    <rect style="fill: none; fill-opacity:0; stroke-width: 2; stroke: #000000" x="860" y="240" width="20" height="26"/>
  </g>
  <g>
    <rect style="fill: #ffc760" x="880" y="240" width="20" height="26"/>
    <rect style="fill: none; fill-opacity:0; stroke-width: 2; stroke: #000000" x="880" y="240" width="20" height="26"/>
  </g>
  <g>
    <rect style="fill: #ffc760" x="900" y="240" width="20" height="26"/>
    <rect style="fill: none; fill-opacity:0; stroke-width: 2; stroke: #000000" x="900" y="240" width="20" height="26"/>
  </g>
  <g>
    <rect style="fill: #ffc760" x="920" y="240" width="20" height="26"/>
    <rect style="fill: none; fill-opacity:0; stroke-width: 2; stroke: #000000" x="920" y="240" width="20" height="26"/>
  </g>
  <g>
    <line style="fill: none; fill-opacity:0; stroke-width: 2; stroke: #000000" x1="304.472" y1="323" x2="935.528" y2="323"/>
    <polyline style="fill: none; fill-opacity:0; stroke-width: 2; stroke: #000000" points="312.236,318 302.236,323 312.236,328 "/>
    <polyline style="fill: none; fill-opacity:0; stroke-width: 2; stroke: #000000" points="927.764,328 937.764,323 927.764,318 "/>
  </g>
  <line style="fill: none; fill-opacity:0; stroke-width: 2; stroke: #000000" x1="300" y1="266" x2="300" y2="340"/>
  <line style="fill: none; fill-opacity:0; stroke-width: 2; stroke: #000000" x1="940" y1="260" x2="940" y2="340"/>
  <text font-size="22.5774" style="fill: #000000;text-anchor:start;font-family:sans-serif;font-style:normal;font-weight:normal" x="613" y="349">
    <tspan x="613" y="349">32</tspan>
  </text>
  <g>
    <line style="fill: none; fill-opacity:0; stroke-width: 2; stroke: #000000" x1="435.528" y1="286" x2="344.472" y2="286"/>
    <polyline style="fill: none; fill-opacity:0; stroke-width: 2; stroke: #000000" points="427.764,291 437.764,286 427.764,281 "/>
    <polyline style="fill: none; fill-opacity:0; stroke-width: 2; stroke: #000000" points="352.236,281 342.236,286 352.236,291 "/>
  </g>
  <text font-size="22.5774" style="fill: #000000;text-anchor:start;font-family:sans-serif;font-style:normal;font-weight:normal" x="313" y="310">
    <tspan x="313" y="310">2</tspan>
  </text>
  <text font-size="12.7998" style="fill: #000000;text-anchor:start;font-family:sans-serif;font-style:normal;font-weight:normal" x="800" y="286">
    <tspan x="800" y="286"></tspan>
  </text>
  <g>
    <line style="fill: none; fill-opacity:0; stroke-width: 2; stroke: #000000" x1="535.528" y1="286" x2="444.472" y2="286"/>
    <polyline style="fill: none; fill-opacity:0; stroke-width: 2; stroke: #000000" points="527.764,291 537.764,286 527.764,281 "/>
    <polyline style="fill: none; fill-opacity:0; stroke-width: 2; stroke: #000000" points="452.236,281 442.236,286 452.236,291 "/>
  </g>
  <g>
    <line style="fill: none; fill-opacity:0; stroke-width: 2; stroke: #000000" x1="335.528" y1="286" x2="304.472" y2="286"/>
    <polyline style="fill: none; fill-opacity:0; stroke-width: 2; stroke: #000000" points="327.764,291 337.764,286 327.764,281 "/>
    <polyline style="fill: none; fill-opacity:0; stroke-width: 2; stroke: #000000" points="312.236,281 302.236,286 312.236,291 "/>
  </g>
  <g>
    <line style="fill: none; fill-opacity:0; stroke-width: 2; stroke: #000000" x1="835.528" y1="286" x2="744.472" y2="286"/>
    <polyline style="fill: none; fill-opacity:0; stroke-width: 2; stroke: #000000" points="827.764,291 837.764,286 827.764,281 "/>
    <polyline style="fill: none; fill-opacity:0; stroke-width: 2; stroke: #000000" points="752.236,281 742.236,286 752.236,291 "/>
  </g>
  <g>
    <line style="fill: none; fill-opacity:0; stroke-width: 2; stroke: #000000" x1="635.528" y1="286" x2="544.472" y2="286"/>
    <polyline style="fill: none; fill-opacity:0; stroke-width: 2; stroke: #000000" points="627.764,291 637.764,286 627.764,281 "/>
    <polyline style="fill: none; fill-opacity:0; stroke-width: 2; stroke: #000000" points="552.236,281 542.236,286 552.236,291 "/>
  </g>
  <g>
    <line style="fill: none; fill-opacity:0; stroke-width: 2; stroke: #000000" x1="735.528" y1="286" x2="644.472" y2="286"/>
    <polyline style="fill: none; fill-opacity:0; stroke-width: 2; stroke: #000000" points="727.764,291 737.764,286 727.764,281 "/>
    <polyline style="fill: none; fill-opacity:0; stroke-width: 2; stroke: #000000" points="652.236,281 642.236,286 652.236,291 "/>
  </g>
  <g>
    <line style="fill: none; fill-opacity:0; stroke-width: 2; stroke: #000000" x1="835.528" y1="286" x2="744.472" y2="286"/>
    <polyline style="fill: none; fill-opacity:0; stroke-width: 2; stroke: #000000" points="827.764,291 837.764,286 827.764,281 "/>
    <polyline style="fill: none; fill-opacity:0; stroke-width: 2; stroke: #000000" points="752.236,281 742.236,286 752.236,291 "/>
  </g>
  <g>
    <line style="fill: none; fill-opacity:0; stroke-width: 2; stroke: #000000" x1="935.528" y1="286" x2="844.472" y2="286"/>
    <polyline style="fill: none; fill-opacity:0; stroke-width: 2; stroke: #000000" points="927.764,291 937.764,286 927.764,281 "/>
    <polyline style="fill: none; fill-opacity:0; stroke-width: 2; stroke: #000000" points="852.236,281 842.236,286 852.236,291 "/>
  </g>
  <text font-size="22.5774" style="fill: #000000;text-anchor:start;font-family:sans-serif;font-style:normal;font-weight:normal" x="380" y="309">
    <tspan x="380" y="309">5</tspan>
  </text>
  <text font-size="22.5774" style="fill: #000000;text-anchor:start;font-family:sans-serif;font-style:normal;font-weight:normal" x="480" y="309">
    <tspan x="480" y="309">5</tspan>
  </text>
  <text font-size="22.5774" style="fill: #000000;text-anchor:start;font-family:sans-serif;font-style:normal;font-weight:normal" x="580" y="309">
    <tspan x="580" y="309">5</tspan>
  </text>
  <text font-size="22.5774" style="fill: #000000;text-anchor:start;font-family:sans-serif;font-style:normal;font-weight:normal" x="680" y="309">
    <tspan x="680" y="309">5</tspan>
  </text>
  <text font-size="22.5774" style="fill: #000000;text-anchor:start;font-family:sans-serif;font-style:normal;font-weight:normal" x="780" y="309">
    <tspan x="780" y="309">5</tspan>
  </text>
  <text font-size="22.5774" style="fill: #000000;text-anchor:start;font-family:sans-serif;font-style:normal;font-weight:normal" x="880" y="309">
    <tspan x="880" y="309">5</tspan>
  </text>
  <text font-size="12.7998" style="fill: #000000;text-anchor:start;font-family:sans-serif;font-style:normal;font-weight:normal" x="880" y="300">
    <tspan x="880" y="300"></tspan>
  </text>
</svg>
