<?xml version="1.0" encoding="UTF-8" standalone="no"?>
<!DOCTYPE svg PUBLIC "-//W3C//DTD SVG 1.1//EN"
 "http://www.w3.org/Graphics/SVG/1.1/DTD/svg11.dtd">
<!-- Generated by graphviz version 2.38.0 (20140413.2041)
 -->
<!-- Title: %3 Pages: 1 -->
<svg width="287pt" height="260pt"
 viewBox="0.00 0.00 287.00 260.00" xmlns="http://www.w3.org/2000/svg" xmlns:xlink="http://www.w3.org/1999/xlink">
<g id="graph0" class="graph" transform="scale(1 1) rotate(0) translate(4 256)">
<title>%3</title>
<!-- N01 -->
<g id="node1" class="node"><title>N01</title>
<polygon fill="#ffc760" stroke="black" points="225,-252 189,-252 189,-216 225,-216 225,-252"/>
</g>
<!-- N11 -->
<g id="node2" class="node"><title>N11</title>
<polygon fill="#add8e6" stroke="black" points="144,-180 108,-180 108,-144 144,-144 144,-180"/>
</g>
<!-- N01&#45;&gt;N11 -->
<g id="edge2" class="edge"><title>N01&#45;&gt;N11</title>
<path fill="none" stroke="black" d="M188.62,-217.116C177.773,-207.742 163.874,-195.73 151.926,-185.405"/>
<polygon fill="black" stroke="black" points="153.883,-182.471 144.028,-178.58 149.306,-187.767 153.883,-182.471"/>
</g>
<!-- N12 -->
<g id="node3" class="node"><title>N12</title>
<polygon fill="#add8e6" stroke="black" points="225,-180 189,-180 189,-144 225,-144 225,-180"/>
</g>
<!-- N01&#45;&gt;N12 -->
<g id="edge3" class="edge"><title>N01&#45;&gt;N12</title>
<path fill="none" stroke="black" d="M207,-215.697C207,-207.983 207,-198.712 207,-190.112"/>
<polygon fill="black" stroke="black" points="210.5,-190.104 207,-180.104 203.5,-190.104 210.5,-190.104"/>
</g>
<!-- L11 -->
<g id="node4" class="node"><title>L11</title>
<ellipse fill="#ffffff" stroke="black" cx="261" cy="-162" rx="18" ry="18"/>
</g>
<!-- N01&#45;&gt;L11 -->
<g id="edge1" class="edge"><title>N01&#45;&gt;L11</title>
<path fill="none" stroke="black" d="M220.348,-215.697C227.499,-206.428 236.382,-194.912 244.02,-185.012"/>
<polygon fill="black" stroke="black" points="246.999,-186.88 250.335,-176.825 241.456,-182.605 246.999,-186.88"/>
</g>
<!-- N21 -->
<g id="node5" class="node"><title>N21</title>
<polygon fill="#95ff76" stroke="black" points="63,-108 27,-108 27,-72 63,-72 63,-108"/>
</g>
<!-- N11&#45;&gt;N21 -->
<g id="edge6" class="edge"><title>N11&#45;&gt;N21</title>
<path fill="none" stroke="black" d="M107.62,-145.116C96.7734,-135.742 82.8736,-123.73 70.9262,-113.405"/>
<polygon fill="black" stroke="black" points="72.8831,-110.471 63.0284,-106.58 68.306,-115.767 72.8831,-110.471"/>
</g>
<!-- L21 -->
<g id="node7" class="node"><title>L21</title>
<ellipse fill="#ffffff" stroke="black" cx="99" cy="-90" rx="18" ry="18"/>
</g>
<!-- N11&#45;&gt;L21 -->
<g id="edge4" class="edge"><title>N11&#45;&gt;L21</title>
<path fill="none" stroke="black" d="M119.326,-143.697C116.161,-135.491 112.316,-125.523 108.826,-116.475"/>
<polygon fill="black" stroke="black" points="112.091,-115.215 105.227,-107.145 105.56,-117.734 112.091,-115.215"/>
</g>
<!-- L22 -->
<g id="node8" class="node"><title>L22</title>
<ellipse fill="#ffffff" stroke="black" cx="153" cy="-90" rx="18" ry="18"/>
</g>
<!-- N11&#45;&gt;L22 -->
<g id="edge5" class="edge"><title>N11&#45;&gt;L22</title>
<path fill="none" stroke="black" d="M132.674,-143.697C135.839,-135.491 139.684,-125.523 143.174,-116.475"/>
<polygon fill="black" stroke="black" points="146.44,-117.734 146.773,-107.145 139.909,-115.215 146.44,-117.734"/>
</g>
<!-- N22 -->
<g id="node6" class="node"><title>N22</title>
<polygon fill="#95ff76" stroke="black" points="225,-108 189,-108 189,-72 225,-72 225,-108"/>
</g>
<!-- N12&#45;&gt;N22 -->
<g id="edge8" class="edge"><title>N12&#45;&gt;N22</title>
<path fill="none" stroke="black" d="M207,-143.697C207,-135.983 207,-126.712 207,-118.112"/>
<polygon fill="black" stroke="black" points="210.5,-118.104 207,-108.104 203.5,-118.104 210.5,-118.104"/>
</g>
<!-- L23 -->
<g id="node9" class="node"><title>L23</title>
<ellipse fill="#ffffff" stroke="black" cx="261" cy="-90" rx="18" ry="18"/>
</g>
<!-- N12&#45;&gt;L23 -->
<g id="edge7" class="edge"><title>N12&#45;&gt;L23</title>
<path fill="none" stroke="black" d="M220.348,-143.697C227.499,-134.428 236.382,-122.912 244.02,-113.012"/>
<polygon fill="black" stroke="black" points="246.999,-114.88 250.335,-104.825 241.456,-110.605 246.999,-114.88"/>
</g>
<!-- L31 -->
<g id="node10" class="node"><title>L31</title>
<ellipse fill="#ffffff" stroke="black" cx="18" cy="-18" rx="18" ry="18"/>
</g>
<!-- N21&#45;&gt;L31 -->
<g id="edge9" class="edge"><title>N21&#45;&gt;L31</title>
<path fill="none" stroke="black" d="M38.3258,-71.6966C35.1606,-63.4906 31.3161,-53.5232 27.8261,-44.4751"/>
<polygon fill="black" stroke="black" points="31.0915,-43.215 24.2272,-35.1446 24.5605,-45.7342 31.0915,-43.215"/>
</g>
<!-- L32 -->
<g id="node11" class="node"><title>L32</title>
<ellipse fill="#ffffff" stroke="black" cx="72" cy="-18" rx="18" ry="18"/>
</g>
<!-- N21&#45;&gt;L32 -->
<g id="edge10" class="edge"><title>N21&#45;&gt;L32</title>
<path fill="none" stroke="black" d="M51.6742,-71.6966C54.8394,-63.4906 58.6839,-53.5232 62.1739,-44.4751"/>
<polygon fill="black" stroke="black" points="65.4395,-45.7342 65.7728,-35.1446 58.9085,-43.215 65.4395,-45.7342"/>
</g>
<!-- L33 -->
<g id="node12" class="node"><title>L33</title>
<ellipse fill="#ffffff" stroke="black" cx="207" cy="-18" rx="18" ry="18"/>
</g>
<!-- N22&#45;&gt;L33 -->
<g id="edge11" class="edge"><title>N22&#45;&gt;L33</title>
<path fill="none" stroke="black" d="M207,-71.6966C207,-63.9827 207,-54.7125 207,-46.1124"/>
<polygon fill="black" stroke="black" points="210.5,-46.1043 207,-36.1043 203.5,-46.1044 210.5,-46.1043"/>
</g>
</g>
</svg>
