<?xml version="1.0" encoding="UTF-8" standalone="no"?>
<!DOCTYPE svg PUBLIC "-//W3C//DTD SVG 1.1//EN"
 "http://www.w3.org/Graphics/SVG/1.1/DTD/svg11.dtd">
<!-- Generated by graphviz version 2.38.0 (20140413.2041)
 -->
<!-- Title: %3 Pages: 1 -->
<svg width="341pt" height="260pt"
 viewBox="0.00 0.00 341.00 260.00" xmlns="http://www.w3.org/2000/svg" xmlns:xlink="http://www.w3.org/1999/xlink">
<g id="graph0" class="graph" transform="scale(1 1) rotate(0) translate(4 256)">
<title>%3</title>
<!-- N01 -->
<g id="node1" class="node"><title>N01</title>
<polygon fill="#ffc760" stroke="red" stroke-width="5" points="225,-252 189,-252 189,-216 225,-216 225,-252"/>
</g>
<!-- N11 -->
<g id="node3" class="node"><title>N11</title>
<polygon fill="#add8e6" stroke="black" points="171,-180 135,-180 135,-144 171,-144 171,-180"/>
</g>
<!-- N01&#45;&gt;N11 -->
<g id="edge2" class="edge"><title>N01&#45;&gt;N11</title>
<path fill="none" stroke="red" stroke-width="3" stroke-dasharray="5,2" d="M193.652,-215.697C187.243,-207.389 179.442,-197.277 172.394,-188.141"/>
<polygon fill="none" stroke="red" stroke-width="3" points="175.074,-185.884 166.195,-180.104 169.532,-190.16 175.074,-185.884"/>
</g>
<!-- N12 -->
<g id="node4" class="node"><title>N12</title>
<polygon fill="#add8e6" stroke="red" stroke-width="5" points="225,-180 189,-180 189,-144 225,-144 225,-180"/>
</g>
<!-- N01&#45;&gt;N12 -->
<g id="edge3" class="edge"><title>N01&#45;&gt;N12</title>
<path fill="none" stroke="red" stroke-width="3" stroke-dasharray="5,2" d="M207,-215.697C207,-207.983 207,-198.712 207,-190.112"/>
<polygon fill="none" stroke="red" stroke-width="3" points="210.5,-190.104 207,-180.104 203.5,-190.104 210.5,-190.104"/>
</g>
<!-- L11 -->
<g id="node6" class="node"><title>L11</title>
<ellipse fill="#ffffff" stroke="black" cx="261" cy="-162" rx="18" ry="18"/>
</g>
<!-- N01&#45;&gt;L11 -->
<g id="edge1" class="edge"><title>N01&#45;&gt;L11</title>
<path fill="none" stroke="red" stroke-width="3" stroke-dasharray="5,2" d="M220.348,-215.697C227.499,-206.428 236.382,-194.912 244.02,-185.012"/>
<polygon fill="none" stroke="red" stroke-width="3" points="246.999,-186.88 250.335,-176.825 241.456,-182.605 246.999,-186.88"/>
</g>
<!-- N01b -->
<g id="node2" class="node"><title>N01b</title>
<polygon fill="#ffc760" stroke="black" stroke-width="3" points="279,-252 243,-252 243,-216 279,-216 279,-252"/>
</g>
<!-- N01b&#45;&gt;N11 -->
<g id="edge13" class="edge"><title>N01b&#45;&gt;N11</title>
<path fill="none" stroke="black" d="M242.679,-221.125C225.353,-209.895 199.156,-192.916 179.543,-180.204"/>
<polygon fill="black" stroke="black" points="181.345,-177.201 171.05,-174.699 177.538,-183.075 181.345,-177.201"/>
</g>
<!-- N12b -->
<g id="node5" class="node"><title>N12b</title>
<polygon fill="#add8e6" stroke="black" stroke-width="3" points="333,-180 297,-180 297,-144 333,-144 333,-180"/>
</g>
<!-- N01b&#45;&gt;N12b -->
<g id="edge14" class="edge"><title>N01b&#45;&gt;N12b</title>
<path fill="none" stroke="black" d="M274.348,-215.697C280.757,-207.389 288.558,-197.277 295.606,-188.141"/>
<polygon fill="black" stroke="black" points="298.468,-190.16 301.805,-180.104 292.926,-185.884 298.468,-190.16"/>
</g>
<!-- N01b&#45;&gt;L11 -->
<g id="edge12" class="edge"><title>N01b&#45;&gt;L11</title>
<path fill="none" stroke="black" d="M261,-215.697C261,-207.983 261,-198.712 261,-190.112"/>
<polygon fill="black" stroke="black" points="264.5,-190.104 261,-180.104 257.5,-190.104 264.5,-190.104"/>
</g>
<!-- N21 -->
<g id="node7" class="node"><title>N21</title>
<polygon fill="#95ff76" stroke="black" points="63,-108 27,-108 27,-72 63,-72 63,-108"/>
</g>
<!-- N11&#45;&gt;N21 -->
<g id="edge9" class="edge"><title>N11&#45;&gt;N21</title>
<path fill="none" stroke="black" stroke-dasharray="5,2" d="M134.679,-149.125C117.353,-137.895 91.1555,-120.916 71.5427,-108.204"/>
<polygon fill="none" stroke="black" points="73.3454,-105.201 63.0502,-102.699 69.5381,-111.075 73.3454,-105.201"/>
</g>
<!-- L21 -->
<g id="node10" class="node"><title>L21</title>
<ellipse fill="#ffffff" stroke="black" cx="99" cy="-90" rx="18" ry="18"/>
</g>
<!-- N11&#45;&gt;L21 -->
<g id="edge7" class="edge"><title>N11&#45;&gt;L21</title>
<path fill="none" stroke="black" stroke-dasharray="5,2" d="M139.652,-143.697C132.501,-134.428 123.618,-122.912 115.98,-113.012"/>
<polygon fill="none" stroke="black" points="118.544,-110.605 109.665,-104.825 113.001,-114.88 118.544,-110.605"/>
</g>
<!-- L22 -->
<g id="node11" class="node"><title>L22</title>
<ellipse fill="#ffffff" stroke="black" cx="153" cy="-90" rx="18" ry="18"/>
</g>
<!-- N11&#45;&gt;L22 -->
<g id="edge8" class="edge"><title>N11&#45;&gt;L22</title>
<path fill="none" stroke="black" stroke-dasharray="5,2" d="M153,-143.697C153,-135.983 153,-126.712 153,-118.112"/>
<polygon fill="none" stroke="black" points="156.5,-118.104 153,-108.104 149.5,-118.104 156.5,-118.104"/>
</g>
<!-- N22 -->
<g id="node8" class="node"><title>N22</title>
<polygon fill="#95ff76" stroke="red" stroke-width="5" points="225,-108 189,-108 189,-72 225,-72 225,-108"/>
</g>
<!-- N12&#45;&gt;N22 -->
<g id="edge5" class="edge"><title>N12&#45;&gt;N22</title>
<path fill="none" stroke="red" stroke-width="3" stroke-dasharray="5,2" d="M207,-143.697C207,-135.983 207,-126.712 207,-118.112"/>
<polygon fill="none" stroke="red" stroke-width="3" points="210.5,-118.104 207,-108.104 203.5,-118.104 210.5,-118.104"/>
</g>
<!-- L23 -->
<g id="node12" class="node"><title>L23</title>
<ellipse fill="#ffffff" stroke="black" cx="261" cy="-90" rx="18" ry="18"/>
</g>
<!-- N12&#45;&gt;L23 -->
<g id="edge4" class="edge"><title>N12&#45;&gt;L23</title>
<path fill="none" stroke="red" stroke-width="3" stroke-dasharray="5,2" d="M220.348,-143.697C227.499,-134.428 236.382,-122.912 244.02,-113.012"/>
<polygon fill="none" stroke="red" stroke-width="3" points="246.999,-114.88 250.335,-104.825 241.456,-110.605 246.999,-114.88"/>
</g>
<!-- N22b -->
<g id="node9" class="node"><title>N22b</title>
<polygon fill="#95ff76" stroke="black" stroke-width="3" points="333,-108 297,-108 297,-72 333,-72 333,-108"/>
</g>
<!-- N12b&#45;&gt;N22b -->
<g id="edge16" class="edge"><title>N12b&#45;&gt;N22b</title>
<path fill="none" stroke="black" d="M315,-143.697C315,-135.983 315,-126.712 315,-118.112"/>
<polygon fill="black" stroke="black" points="318.5,-118.104 315,-108.104 311.5,-118.104 318.5,-118.104"/>
</g>
<!-- N12b&#45;&gt;L23 -->
<g id="edge15" class="edge"><title>N12b&#45;&gt;L23</title>
<path fill="none" stroke="black" d="M301.652,-143.697C294.501,-134.428 285.618,-122.912 277.98,-113.012"/>
<polygon fill="black" stroke="black" points="280.544,-110.605 271.665,-104.825 275.001,-114.88 280.544,-110.605"/>
</g>
<!-- L31 -->
<g id="node13" class="node"><title>L31</title>
<ellipse fill="#ffffff" stroke="black" cx="18" cy="-18" rx="18" ry="18"/>
</g>
<!-- N21&#45;&gt;L31 -->
<g id="edge10" class="edge"><title>N21&#45;&gt;L31</title>
<path fill="none" stroke="black" stroke-dasharray="5,2" d="M38.3258,-71.6966C35.1606,-63.4906 31.3161,-53.5232 27.8261,-44.4751"/>
<polygon fill="none" stroke="black" points="31.0915,-43.215 24.2272,-35.1446 24.5605,-45.7342 31.0915,-43.215"/>
</g>
<!-- L32 -->
<g id="node14" class="node"><title>L32</title>
<ellipse fill="#ffffff" stroke="black" cx="72" cy="-18" rx="18" ry="18"/>
</g>
<!-- N21&#45;&gt;L32 -->
<g id="edge11" class="edge"><title>N21&#45;&gt;L32</title>
<path fill="none" stroke="black" stroke-dasharray="5,2" d="M51.6742,-71.6966C54.8394,-63.4906 58.6839,-53.5232 62.1739,-44.4751"/>
<polygon fill="none" stroke="black" points="65.4395,-45.7342 65.7728,-35.1446 58.9085,-43.215 65.4395,-45.7342"/>
</g>
<!-- L33 -->
<g id="node15" class="node"><title>L33</title>
<ellipse fill="#ffffff" stroke="black" cx="234" cy="-18" rx="18" ry="18"/>
</g>
<!-- N22&#45;&gt;L33 -->
<g id="edge6" class="edge"><title>N22&#45;&gt;L33</title>
<path fill="none" stroke="red" stroke-width="3" stroke-dasharray="5,2" d="M213.674,-71.6966C216.839,-63.4906 220.684,-53.5232 224.174,-44.4751"/>
<polygon fill="none" stroke="red" stroke-width="3" points="227.44,-45.7342 227.773,-35.1446 220.909,-43.215 227.44,-45.7342"/>
</g>
<!-- N22b&#45;&gt;L33 -->
<g id="edge17" class="edge"><title>N22b&#45;&gt;L33</title>
<path fill="none" stroke="black" d="M296.62,-73.1159C284.367,-62.5273 268.218,-48.5714 255.389,-37.4843"/>
<polygon fill="black" stroke="black" points="257.367,-34.5675 247.512,-30.677 252.79,-39.8638 257.367,-34.5675"/>
</g>
<!-- L34b -->
<g id="node16" class="node"><title>L34b</title>
<ellipse fill="#ffffff" stroke="black" cx="315" cy="-18" rx="18" ry="18"/>
</g>
<!-- N22b&#45;&gt;L34b -->
<g id="edge18" class="edge"><title>N22b&#45;&gt;L34b</title>
<path fill="none" stroke="black" d="M315,-71.6966C315,-63.9827 315,-54.7125 315,-46.1124"/>
<polygon fill="black" stroke="black" points="318.5,-46.1043 315,-36.1043 311.5,-46.1044 318.5,-46.1043"/>
</g>
</g>
</svg>
